;TYPE=PLATED
;Layer: PTH_Through
;EasyEDA Pro v2.2.45.4, 2026-01-31 17:51:17
;Gerber Generator version 0.3
M48
METRIC,LZ,0000.00000
;Hole size 1 = 0.30000 METRIC
T01C0.30000
;Hole size 2 = 0.83998 METRIC
T02C0.83998
;Hole size 3 = 0.90002 METRIC
T03C0.90002
;Hole size 4 = 1.00000 METRIC
T04C1.00000
;Hole size 5 = 2.00000 METRIC
T05C2.00000
%
G05
G90
T01
X-140.92504Y65.83096
X-140.99781Y71.24202
X-140.71497Y83.83929
X-122.11501Y97.63926
X-123.7304Y125.24541
X-114.24702Y88.59302
X-100.76411Y121.482
X-91.18803Y79.83799
X-140.71497Y96.39926
T02
X-141.91497Y46.95902
X-141.91497Y58.07914
X-141.91497Y59.83914
X-141.91497Y70.95926
X-141.91497Y72.71925
X-141.91497Y83.83937
X-141.91497Y85.59936
X-141.91497Y96.71948
X-90.91915Y92.94884
X-79.79903Y92.94884
X-91.04615Y101.33084
X-79.92603Y101.33084
X-90.79215Y115.30084
X-79.67203Y115.30084
X-79.79918Y108.06184
X-90.9193Y108.06184
X-141.70252Y101.24525
X-141.70252Y112.36537
X-141.70252Y114.12536
X-141.70252Y125.24548
X-141.70252Y127.00547
X-141.70252Y138.12559
X-141.70252Y139.88559
X-141.70252Y151.00571
T03
X-109.855Y62.23
X-109.855Y57.15
X-116.84Y56.896
X-116.84Y61.976
X-123.063Y56.896
X-123.063Y61.976
X-130.175Y56.642
X-130.175Y61.722
X-161.925Y79.502
X-161.925Y82.042
X-161.925Y84.582
X-161.925Y87.122
X-169.545Y79.502
X-169.545Y82.042
X-169.545Y84.582
X-169.545Y87.122
X-88.619Y124.96695
X-80.81902Y124.96695
X-89.63605Y132.61014
X-81.83607Y132.61014
X-88.98787Y141.52326
X-81.18789Y141.52326
X-88.98787Y147.25805
X-81.18789Y147.25805
X-162.306Y128.397
X-162.306Y130.937
X-162.306Y133.477
X-162.306Y136.017
X-169.926Y128.397
X-169.926Y130.937
X-169.926Y133.477
X-169.926Y136.017
T04
X-94.99603Y58.29305
X-102.616Y58.29305
X-124.587Y122.68233
X-122.047Y122.68208
X-119.507Y122.68208
X-116.967Y122.68208
X-114.427Y122.68208
X-111.887Y122.68208
X-109.347Y122.68208
X-124.58725Y130.30208
X-122.04725Y130.30208
X-119.50725Y130.30208
X-116.96725Y130.30208
X-114.42725Y130.30208
X-111.88725Y130.30208
X-109.34725Y130.30208
X-118.745Y85.471
X-118.745Y88.011
X-118.745Y90.551
X-118.745Y93.091
X-118.745Y95.631
X-118.745Y98.171
X-118.745Y100.711
X-118.745Y103.251
X-111.125Y103.251
X-111.125Y100.711
X-111.125Y98.171
X-111.125Y95.631
X-111.125Y93.091
X-111.125Y90.551
X-111.125Y88.011
X-111.125Y85.471
X-94.488Y71.43801
X-97.028Y71.43801
X-99.568Y71.43801
X-102.108Y71.43801
X-104.648Y71.43801
X-107.188Y71.43801
X-109.728Y71.43801
X-94.488Y79.43799
X-97.028Y79.43799
X-99.568Y79.43799
X-102.108Y79.43799
X-104.648Y79.43799
X-107.188Y79.43799
X-109.728Y79.43799
T05
X-174.244Y150.114
X-63.4337Y150.114
X-174.117Y42.926
X-63.373Y42.926
X-63.246Y99.314
X-174.117Y99.06
X-117.856Y150.114
X-117.602Y42.799
M30