G04 Layer: TopSolderMaskLayer*
G04 EasyEDA Pro v2.2.45.4, 2026-01-31 17:51:17*
G04 Gerber Generator version 0.3*
G04 Scale: 100 percent, Rotated: No, Reflected: No*
G04 Dimensions in millimeters*
G04 Leading zeros omitted, absolute positions, 4 integers and 5 decimals*
G04 Generated by one-click*
%FSLAX45Y45*%
%MOMM*%
%AMRoundRect*1,1,$1,$2,$3*1,1,$1,$4,$5*1,1,$1,0-$2,0-$3*1,1,$1,0-$4,0-$5*20,1,$1,$2,$3,$4,$5,0*20,1,$1,$4,$5,0-$2,0-$3,0*20,1,$1,0-$2,0-$3,0-$4,0-$5,0*20,1,$1,0-$4,0-$5,$2,$3,0*4,1,4,$2,$3,$4,$5,0-$2,0-$3,0-$4,0-$5,$2,$3,0*%
%ADD10C,1.62403*%
%ADD11RoundRect,0.09131X-0.40514X-0.40514X-0.40514X0.40514*%
%ADD12C,1.70002*%
%ADD13C,1.7016*%
%ADD14RoundRect,0.09588X-0.80286X-0.80286X-0.80286X0.80286*%
%ADD15RoundRect,0.09554X-0.75303X-1.00303X-0.75303X1.00303*%
%ADD16O,1.6002X2.1016*%
%ADD17O,1.6016X2.1016*%
%ADD18C,1.36159*%
%ADD19C,2.1016*%
G75*


G04 Pad Start*
G54D10*
G01X-10985500Y6223000D03*
G01X-10985500Y5715000D03*
G01X-11684000Y5689600D03*
G01X-11684000Y6197600D03*
G01X-12306300Y5689600D03*
G01X-12306300Y6197600D03*
G01X-13017500Y5664200D03*
G01X-13017500Y6172200D03*
G54D11*
G01X-6950646Y6375062D03*
G01X-6790753Y6375748D03*
G01X-6782900Y5562600D03*
G01X-6933100Y5562600D03*
G54D12*
G01X-9499600Y5829300D03*
G01X-10261600Y5829300D03*
G54D13*
G01X-16192500Y7950200D03*
G01X-16192500Y8204200D03*
G01X-16192500Y8458200D03*
G01X-16192500Y8712200D03*
G01X-16954500Y7950200D03*
G01X-16954500Y8204200D03*
G01X-16954500Y8458200D03*
G54D14*
G01X-16954500Y8712200D03*
G54D15*
G01X-12458700Y12268225D03*
G54D17*
G01X-12204700Y12268200D03*
G01X-11950700Y12268200D03*
G01X-11696700Y12268200D03*
G01X-11442700Y12268200D03*
G01X-11188700Y12268200D03*
G01X-10934700Y12268200D03*
G01X-12458700Y13030200D03*
G01X-12204700Y13030200D03*
G01X-11950700Y13030200D03*
G01X-11696700Y13030200D03*
G01X-11442700Y13030200D03*
G01X-11188700Y13030200D03*
G01X-10934700Y13030200D03*
G54D13*
G01X-11874500Y8547100D03*
G01X-11874500Y8801100D03*
G01X-11874500Y9055100D03*
G01X-11874500Y9309100D03*
G01X-11874500Y9563100D03*
G01X-11874500Y9817100D03*
G01X-11874500Y10071100D03*
G01X-11874500Y10325100D03*
G01X-11112500Y10325100D03*
G01X-11112500Y10071100D03*
G01X-11112500Y9817100D03*
G01X-11112500Y9563100D03*
G01X-11112500Y9309100D03*
G01X-11112500Y9055100D03*
G01X-11112500Y8801100D03*
G01X-11112500Y8547100D03*
G54D10*
G01X-8861892Y12496695D03*
G01X-8081909Y12496695D03*
G54D15*
G01X-9448800Y7143801D03*
G54D17*
G01X-9702800Y7143801D03*
G01X-9956800Y7143801D03*
G01X-10210800Y7143801D03*
G01X-10464800Y7143801D03*
G01X-10718800Y7143801D03*
G01X-10972800Y7143801D03*
G01X-9448800Y7943799D03*
G01X-9702800Y7943799D03*
G01X-9956800Y7943799D03*
G01X-10210800Y7943799D03*
G01X-10464800Y7943799D03*
G01X-10718800Y7943799D03*
G01X-10972800Y7943799D03*
G54D10*
G01X-8963598Y13261014D03*
G01X-8183615Y13261014D03*
G54D18*
G01X-14191497Y4695895D03*
G01X-14191497Y5807907D03*
G01X-14191497Y5983906D03*
G01X-14191497Y7095918D03*
G01X-14191497Y7271917D03*
G01X-14191497Y8383929D03*
G01X-14191497Y8559928D03*
G01X-14191497Y9671940D03*
G54D10*
G01X-8898780Y14152326D03*
G01X-8118796Y14152326D03*
G54D18*
G01X-9091922Y9294884D03*
G01X-7979910Y9294884D03*
G01X-9104622Y10133084D03*
G01X-7992610Y10133084D03*
G54D10*
G01X-8898780Y14725805D03*
G01X-8118796Y14725805D03*
G54D13*
G01X-16230600Y12839700D03*
G01X-16230600Y13093700D03*
G01X-16230600Y13347700D03*
G01X-16230600Y13601700D03*
G01X-16992600Y12839700D03*
G01X-16992600Y13093700D03*
G01X-16992600Y13347700D03*
G54D14*
G01X-16992600Y13601700D03*
G54D18*
G01X-9079222Y11530084D03*
G01X-7967210Y11530084D03*
G01X-7979910Y10806184D03*
G01X-9091922Y10806184D03*
G01X-14170252Y10124517D03*
G01X-14170252Y11236529D03*
G01X-14170252Y11412529D03*
G01X-14170252Y12524541D03*
G01X-14170252Y12700540D03*
G01X-14170252Y13812552D03*
G01X-14170252Y13988551D03*
G01X-14170252Y15100563D03*
G54D19*
G01X-17424400Y15011400D03*
G01X-6343370Y15011400D03*
G01X-17411700Y4292600D03*
G01X-6337300Y4292600D03*
G01X-6324600Y9931400D03*
G01X-17411700Y9906000D03*
G01X-11785600Y15011400D03*
G01X-11760200Y4279900D03*
G04 Pad End*

M02*

