G04 Layer: BottomSilkscreenLayer*
G04 EasyEDA Pro v2.2.45.4, 2026-01-31 17:51:17*
G04 Gerber Generator version 0.3*
G04 Scale: 100 percent, Rotated: No, Reflected: No*
G04 Dimensions in millimeters*
G04 Leading zeros omitted, absolute positions, 4 integers and 5 decimals*
G04 Generated by one-click*
%FSLAX45Y45*%
%MOMM*%
%ADD10C,0.254*%
%ADD11C,0.5980*%
G75*


G04 PolygonModel Start*
G54D10*
G01X-11813487Y10436101D02*
G01X-11173513Y10436101D01*
G01X-11393681Y8436099D02*
G01X-11173686Y8436099D01*
G01X-11813487Y10154166D02*
G01X-11813487Y10242034D01*
G01X-11813487Y9900166D02*
G01X-11813487Y9988034D01*
G01X-11813487Y9646166D02*
G01X-11813487Y9734034D01*
G01X-11813487Y9392166D02*
G01X-11813487Y9480034D01*
G01X-11813487Y9138166D02*
G01X-11813487Y9226034D01*
G01X-11813487Y8884166D02*
G01X-11813487Y8972034D01*
G01X-11813487Y8630166D02*
G01X-11813487Y8718034D01*
G01X-11813487Y8436099D02*
G01X-11813487Y8464034D01*
G01X-11173686Y10408034D02*
G01X-11173686Y10436101D01*
G01X-11173686Y10154034D02*
G01X-11173686Y10242166D01*
G01X-11173686Y9900034D02*
G01X-11173686Y9988166D01*
G01X-11173686Y9646034D02*
G01X-11173686Y9734166D01*
G01X-11173686Y9392034D02*
G01X-11173686Y9480166D01*
G01X-11173686Y9138034D02*
G01X-11173686Y9226166D01*
G01X-11173686Y8884034D02*
G01X-11173686Y8972166D01*
G01X-11173686Y8630034D02*
G01X-11173686Y8718166D01*
G01X-11173686Y8436099D02*
G01X-11173686Y8464166D01*
G01X-11813487Y8436099D02*
G01X-11593500Y8436099D01*
G01X-11813487Y10408166D02*
G01X-11813487Y10436101D01*
G01X-11393500Y8436102D02*
G03X-11593500Y8441106I-100000J2502D01*
G01X-9232900Y7861300D02*
G01X-9232900Y7645400D01*
G01X-9350685Y7226300D02*
G01X-9232900Y7226300D01*
G01X-9232900Y7226300D02*
G01X-9232900Y7442200D01*
G01X-11052241Y7226300D02*
G01X-11201400Y7226300D01*
G01X-10798241Y7226300D02*
G01X-10893359Y7226300D01*
G01X-10544241Y7226300D02*
G01X-10639359Y7226300D01*
G01X-10290241Y7226300D02*
G01X-10385359Y7226300D01*
G01X-10036241Y7226300D02*
G01X-10131359Y7226300D01*
G01X-9782241Y7226300D02*
G01X-9877359Y7226300D01*
G01X-9546915Y7226300D02*
G01X-9623359Y7226300D01*
G01X-11052241Y7861300D02*
G01X-11201400Y7861300D01*
G01X-11201400Y7861300D02*
G01X-11201400Y7226300D01*
G01X-10798241Y7861300D02*
G01X-10893359Y7861300D01*
G01X-10544241Y7861300D02*
G01X-10639359Y7861300D01*
G01X-10290241Y7861300D02*
G01X-10385359Y7861300D01*
G01X-10036241Y7861300D02*
G01X-10131359Y7861300D01*
G01X-9782241Y7861300D02*
G01X-9877359Y7861300D01*
G01X-9528241Y7861300D02*
G01X-9623359Y7861300D01*
G01X-9232900Y7861300D02*
G01X-9369359Y7861300D01*
G01X-9232900Y7442200D02*
G02X-9232900Y7645400I0J101600D01*

G04 Circle Start*
G01X-11743487Y8551113D02*
G03X-11683492Y8551113I29997J0D01*
G03X-11743487Y8551113I-29997J0D01*
G01X-9336560Y7112000D02*
G03X-9256240Y7112000I40160J0D01*
G03X-9336560Y7112000I-40160J0D01*
G04 Circle End*

M02*

